<svg xmlns="http://www.w3.org/2000/svg" width="47.312" height="46.854" viewBox="0 0 47.312 46.854">
  <path id="Icon_ionic-md-heart-half" data-name="Icon ionic-md-heart-half" d="M27.113,4.5a9.671,9.671,0,0,0-7.367,3.467A9.671,9.671,0,0,0,12.379,4.5a8.917,8.917,0,0,0-9,9.09c0,6.278,5.564,11.317,13.994,19.088l2.377,2.148,2.377-2.148c8.429-7.771,13.994-12.81,13.994-19.088A8.917,8.917,0,0,0,27.113,4.5ZM19.746,31.509V11.9l1.928-2.3a7.182,7.182,0,0,1,5.439-2.567,6.425,6.425,0,0,1,4.62,1.88A6.594,6.594,0,0,1,33.6,13.6c0,2.29-.984,4.541-3.18,7.281A124.948,124.948,0,0,1,19.746,31.509Z" transform="matrix(0.809, 0.588, -0.588, 0.809, 19.341, -4.228)" fill="#ffa183" stroke="#fff" stroke-width="2"/>
</svg>
