<svg xmlns="http://www.w3.org/2000/svg" width="807.823" height="125.326" viewBox="0 0 807.823 125.326">
  <g id="Group_621" data-name="Group 621" transform="translate(-834.653 -1566.656)">
    <path id="Union_9" data-name="Union 9" d="M-5216.492-18203.771a44.15,44.15,0,0,1-5.9-.367c-2.284-.279-4.028-.525-5.354-.764-12.042-.336-28.772-3.8-33.7-9.3-6.52-7.266-8.243-12.5,0-18.439,5.022-3.625,29.5-8.074,35.717-8.693,6.589-.658,12.333-3.584,17.7-6.686,10.858-6.264,21.251-11.988,34.007-15.16,24.523-6.1,51.045-3.85,75.385,1.756,6.336,1.457,12.59,3.166,18.752,5.086q4.715,1.471,9.36,3.1c2.955,1.029,6.088,2.514,9.328,2.684,3.529.18,5.992-2.041,8.684-3.639a56.592,56.592,0,0,1,6.837-3.437,69.373,69.373,0,0,1,15.875-4.531c20.135-3.2,41.911,1.5,56.8,13.479a52.164,52.164,0,0,1,17.153-11.713c18.554-7.992,39.829-7.408,59.431-2.68,10.931,2.633,21.293,6.506,31.659,10.389,5.395,2.023,12,4.477,17.92,2.588,4.714-1.5,8.234-5.238,11.855-8.041,30.676-23.756,70.316-38.557,111.285-43.873,44.953-5.826,91.192-.418,133.732,12.723q8.436,2.613,16.689,5.611c4.783,1.729,9.783,4.383,14.828,5.418,5.781,1.18,8.993-3.332,11.91-6.746a56.627,56.627,0,0,1,8.887-8.547c13.84-10.48,33.208-15.471,51.574-12.678,9.052,1.375,18.017,5.193,22.318,12.379,4.563,7.619,3.731,16.451,3.138,24.693l-2.206,30.791c-.39,5.422-.593,10.891-1.194,16.3-.432,3.852-1.434,7.551-4.457,10.574-5.312,5.311-14.176,6.551-21.95,6.869-8.391.336-16.841.262-25.272.184-3.887-.033-7.775-.068-11.644-.061q-38.2.056-76.419.1-152.847.214-305.689.414l-305.693.414h-.014A4.289,4.289,0,0,1-5216.492-18203.771Z" transform="translate(6102.152 19895.055)" fill="#ffa183" stroke="rgba(0,0,0,0)" stroke-miterlimit="10" stroke-width="1"/>
    <path id="Subtraction_33" data-name="Subtraction 33" d="M-12217-10807.822h0c-2.452-.105-5.065-.223-7.765-.35-4.984-.232-10.046-.484-14.945-.727l-.051,0h-.007c-15.314-.762-31.148-1.547-46.742-1.859-4.8-.1-9.467-.146-13.867-.146-5.623,0-11.111.082-16.307.238-5.375.164-10.829.49-16.105.807h-.006c-4.679.281-9.517.57-14.3.746-2.4.088-4.6.131-6.733.131-4.2,0-8.007-.168-11.634-.516a84.787,84.787,0,0,1-11.489-1.861,25.523,25.523,0,0,1-5.832-2.008,11.743,11.743,0,0,1-4.6-3.949,9.5,9.5,0,0,1-1.2-2.586,10.857,10.857,0,0,1-.418-2.793,12.75,12.75,0,0,1,1.166-5.531,14.109,14.109,0,0,1,1.709-2.82,14.847,14.847,0,0,1,2.216-2.275,19.77,19.77,0,0,1,5.56-3.15,33.808,33.808,0,0,1,6.4-1.7,61.461,61.461,0,0,1,6.443-.742c2.116-.145,4.307-.213,6.7-.213,5.373,0,10.847.365,16.138.721l.011,0,.319.02c.736.049,1.5.1,2.243.148a9.95,9.95,0,0,1-.043-3.484,11.45,11.45,0,0,1,1.1-3.365,12.011,12.011,0,0,1,5-5.143,14.926,14.926,0,0,1,3.605-1.35,16.355,16.355,0,0,1,3.687-.41,24.259,24.259,0,0,1,7.594,1.354,55.976,55.976,0,0,1,7.161,3.033c.331.162.669.338.969.492l.011,0c.405.209.825.424,1.241.625a33.112,33.112,0,0,1,.059-4.338,34.1,34.1,0,0,1,.92-5.219,33.394,33.394,0,0,1,1.732-5.014,39.292,39.292,0,0,1,4.489-7.719,42.774,42.774,0,0,1,6.083-6.582,50.292,50.292,0,0,1,17.432-9.842,61.944,61.944,0,0,1,9.8-2.381,71.871,71.871,0,0,1,10.115-.867c.4,0,.8-.008,1.208-.008a101.383,101.383,0,0,1,20.952,2.393,86.427,86.427,0,0,1,19.984,6.574Z" transform="translate(13857.998 12455.611)" fill="#ff7950" stroke="rgba(0,0,0,0)" stroke-miterlimit="10" stroke-width="1"/>
  </g>
</svg>
