<svg xmlns="http://www.w3.org/2000/svg" width="81.575" height="93.686" viewBox="0 0 81.575 93.686">
  <g id="Group_622" data-name="Group 622" transform="translate(-13170.792 -12162.449)">
    <path id="Path_543" data-name="Path 543" d="M-1255.776-8793.228h81.575v52.405h-81.575Z" transform="translate(14426.567 20996.957)" fill="#fff"/>
    <path id="Path_542" data-name="Path 542" d="M101.318-8407.314s.64,13.309,12.277,13.736,14.377-8.431,14.377-13.736" transform="translate(13091.149 20618.836)" fill="none" stroke="#ffa183" stroke-linecap="round" stroke-width="3"/>
    <path id="Path_544" data-name="Path 544" d="M-1179.709-8793.228v52.405" transform="translate(14418.725 20996.836)" fill="none" stroke="#ffa183" stroke-width="3"/>
    <path id="Path_546" data-name="Path 546" d="M-1192.7-8793.32c-.283-2.862-3.714-8.793-3.714-8.793s-6.476,2.746-11.847,2.6-12.2-2.6-12.2-2.6-4.524,6.836-3.907,8.793" transform="translate(14418.449 21003.445)" fill="#fff"/>
    <path id="Path_547" data-name="Path 547" d="M13101.479,12149.609l10.592,11.7h11.786l12.064-11.7s.462,22.563,0,25.059-1.776,13.8-16.669,13.8-17.205-10.224-17.773-13.8S13101.479,12149.609,13101.479,12149.609Z" transform="translate(91.208 12.839)" fill="#fff"/>
    <circle id="Ellipse_214" data-name="Ellipse 214" cx="2.5" cy="2.5" r="2.5" transform="translate(13213.621 12181.891)" fill="#ffa183"/>
    <circle id="Ellipse_215" data-name="Ellipse 215" cx="2.5" cy="2.5" r="2.5" transform="translate(13200.621 12181.891)" fill="#ffa183"/>
  </g>
</svg>
